<?xml version="1.0" encoding="utf-8"?>
<!-- Generator: Adobe Illustrator 19.0.0, SVG Export Plug-In . SVG Version: 6.00 Build 0)  -->
<svg version="1.1" id="layer" xmlns="http://www.w3.org/2000/svg" xmlns:xlink="http://www.w3.org/1999/xlink" x="0px" y="0px"
	 viewBox="-153 -46 652 652" style="enable-background:new -153 -46 652 652;" xml:space="preserve">
<style type="text/css">
	.st0{fill:#1875BB;}
</style>
<g>
	<path class="st0" d="M399.5,333H373v-62.2h-16.3V252H373v-5c0-22.4,10.3-32.8,32.3-32.8c3.4,0,7.2,0.3,10.4,0.8l0.6,0.1v18.2
		l-1.1-0.5c-2-0.9-3.9-1.2-6.6-1.1c-6.5,0.3-9.2,4.9-9.2,15.9v4.3v18.8L399.5,333L399.5,333z M451.8,334.8
		c-20.6,0-29.8-9.4-29.8-30.4v-33.6h-22.5V252h23.3v-14.6l24.9-12.8V252h19.6v18.8h-19.6v30.5c0,8.7,1.8,14.1,11.1,14.1
		c2.2,0,5.3-0.2,8.2-1.1l0.9-0.3l0.7,18.7l-0.6,0.2C463.4,334.1,457.4,334.8,451.8,334.8z"/>
	<path class="st0" d="M-101.7,333h-29.8V224.6h29.8v42.9c3.5-4.5,38.5-42.9,38.5-42.9h33.6l-44.6,50.5l45.6,53.3v4.5h-32.7
		c0,0-34.3-40.4-40.4-48.7L-101.7,333L-101.7,333z M0.7,333h-29.3v-95.5l29.3-12.8L0.7,333L0.7,333z"/>
	<g>
		<path class="st0" d="M314.8,335.9c-25.3,0-42.3-17.2-42.3-42.7c0-26.6,16.2-43.2,42.3-43.2c25.3,0,42.3,17.3,42.3,43.2
			C357.2,318.7,340.2,335.9,314.8,335.9z M314.8,268.6c-9.9,0-16.3,9.5-16.3,24.3c0,14.7,6.4,24.1,16.3,24.1
			c10.1,0,16.4-9.2,16.4-24.1C331.3,277.6,325.1,268.6,314.8,268.6z"/>
	</g>
	<g>
		<g>
			<g>
				<path class="st0" d="M8.1,300.5c0.9,9.6,4.1,16.8,10.8,23.9c6.3,6.8,18.1,11.4,34.7,11.4c9.5,0,17.5-2.3,23.8-5.3
					c6.2-2.9,10.9-7.5,14.3-13.2c3.4-5.6,5.2-11.9,5.2-18.5c0-5.7-1.3-10.8-3.9-15.4c-2.6-4.5-6.7-8.4-12.4-11.5
					c-5.7-3.1-15.4-6.3-28.7-9.3c-5.6-1.3-9.1-2.6-10.7-4.1c-1.6-1.5-2.5-3.2-2.5-5.1c0-2.5,1-4.7,3-6.5c1.9-1.7,4.8-2.6,8.6-2.6
					c4.5,0,8.1,1.2,10.7,3.5c2.9,2.6,4.6,5.5,5.3,9.5l27-2.5c-1.3-9.9-4.7-16.3-11.3-21.4c-6.5-4.9-16-8.8-28.5-8.8
					c-10.2,0-17.1,1.3-24.3,5c-5.7,2.9-10.3,6.9-13.1,11.6c-2.9,4.7-4.3,9.8-4.3,15.1c0,8.1,2.8,14.8,8.5,20
					c5.6,5.3,15.2,9.6,28.6,12.8c8.5,2,13.7,4.1,16.1,6.4c2.4,2.3,3.6,5,3.6,8c0,3.1-1.3,5.9-3.8,8.2c-2.5,2.3-6.1,3.5-10.7,3.5
					c-6.1,0-10.9-2.3-14.2-6.8c-2.3-3.2-3.6-6.4-4.2-10.5L8.1,300.5z"/>
			</g>
		</g>
	</g>
	<g>
		<g>
			<g>
				<g>
					<path class="st0" d="M193.7,311.6c1.6,7.5,5.8,12.7,11,16.8c5.3,4.2,13.6,7.5,26.3,7.5c9.1,0,19.3-2.6,26.6-8.4
						c6.3-5.1,9.5-11.8,9.5-20c0-4.6-1.1-8.8-3.4-12.7c-2.2-3.8-5.5-6.8-9.8-8.9c-4.3-2.1-10.9-3.7-19.8-4.9
						c-5.9-0.8-9.8-1.8-11.6-2.8c-1.9-1.1-2.8-2.8-2.8-4.9c0-1.9,0.7-3.6,2.2-4.9c1.4-1.3,3.8-2,6.9-2c3.1,0,5.7,0.9,7.9,2.6
						c1.3,1.1,3.1,2.9,3.8,5.6l24.1-2.8c-3.3-9.7-9.5-16.4-19.1-19.5c-4.9-1.6-10-2.2-15.1-2.2c-7.8,0-14.4,1.5-19,3.4
						c-4.6,1.9-8.3,4.8-10.9,8.6c-3.1,4.5-4.6,11.1-3.9,16.5c0.8,6.3,3.9,12.3,9,15.9c1.4,1,3,1.9,4.6,2.6
						c5.8,2.5,12.1,3.6,18.2,4.9c6.3,1.3,10.1,2.4,11.6,3.3c2.1,1.3,3.2,3.2,3.2,5.6c0,2.1-0.8,3.9-2.4,5.3c-2,1.9-4.9,2.8-8.6,2.8
						c-3.4,0-6.1-0.8-8.1-2.5c-1.4-1.1-3.9-3.6-5.2-7.8L193.7,311.6z"/>
				</g>
			</g>
		</g>
	</g>
	<g>
		<g>
			<g>
				<path class="st0" d="M101.4,300.5c0.9,9.6,4.1,16.8,10.8,23.9c6.3,6.8,18.1,11.4,34.7,11.4c9.5,0,17.5-2.3,23.8-5.3
					c6.2-2.9,10.9-7.5,14.3-13.2c3.4-5.6,5.2-11.9,5.2-18.5c0-5.7-1.3-10.8-3.9-15.4c-2.6-4.5-6.7-8.4-12.4-11.5
					c-5.7-3.1-15.4-6.3-28.7-9.3c-5.6-1.3-9.1-2.6-10.7-4.1c-1.6-1.5-2.5-3.2-2.5-5.1c0-2.5,1-4.7,3-6.5c1.9-1.7,4.8-2.6,8.6-2.6
					c4.5,0,8.1,1.2,10.7,3.5c2.9,2.6,4.6,5.5,5.3,9.5l27-2.5c-1.3-9.9-4.7-16.3-11.3-21.4c-6.5-4.9-16-8.8-28.5-8.8
					c-10.2,0-17.1,1.3-24.3,5c-5.7,2.9-10.3,6.9-13.2,11.6c-2.9,4.7-4.3,9.8-4.3,15.1c0,8.1,2.8,14.8,8.5,20
					c5.6,5.3,15.2,9.6,28.6,12.8c8.5,2,13.7,4.1,16.1,6.4c2.4,2.3,3.6,5,3.6,8c0,3.1-1.3,5.9-3.8,8.2c-2.5,2.3-6.1,3.5-10.7,3.5
					c-6.1,0-10.9-2.3-14.2-6.8c-2.3-3.2-3.6-6.4-4.2-10.5L101.4,300.5z"/>
			</g>
		</g>
	</g>
</g>
</svg>
